<?xml version="1.0" encoding="UTF-8" standalone="no"?>
<!-- Created with Inkscape (http://www.inkscape.org/) -->

<svg
   width="169mm"
   height="21mm"
   viewBox="0 0 169 21"
   version="1.1"
   id="svg414"
   inkscape:version="1.2.2 (732a01da63, 2022-12-09)"
   sodipodi:docname="letra-logo.svg"
   xmlns:inkscape="http://www.inkscape.org/namespaces/inkscape"
   xmlns:sodipodi="http://sodipodi.sourceforge.net/DTD/sodipodi-0.dtd"
   xmlns="http://www.w3.org/2000/svg"
   xmlns:svg="http://www.w3.org/2000/svg">
  <sodipodi:namedview
     id="namedview416"
     pagecolor="transparent"
     bordercolor="#000000"
     borderopacity="0.25"
     inkscape:showpageshadow="2"
     inkscape:pageopacity="0.0"
     inkscape:pagecheckerboard="0"
     inkscape:deskcolor="#d1d1d1"
     inkscape:document-units="mm"
     showgrid="false"
     inkscape:zoom="0.71624579"
     inkscape:cx="396.51193"
     inkscape:cy="561.95793"
     inkscape:window-width="1920"
     inkscape:window-height="991"
     inkscape:window-x="-9"
     inkscape:window-y="-9"
     inkscape:window-maximized="1"
     inkscape:current-layer="layer1" />
  <defs
     id="defs411" />
  <g
     inkscape:label="Layer 1"
     inkscape:groupmode="layer"
     id="layer1">
    <path
       d="m 3.534942,4.1710646 c -0.453761,0.45376 -0.690034,1.14644 -0.924455,2.71198 -0.486039,3.2435304 -0.900906,9.2770904 -0.708554,10.3031404 0.205052,1.09273 0.901436,1.56025 1.810015,1.2147 0.624152,-0.23733 0.640027,-0.32332 0.814387,-4.43177 0.0979,-2.30452 0.252677,-4.7048204 0.344488,-5.3340004 0.166423,-1.14406 0.166423,-1.14406 0.926042,0.43842 0.417512,0.87048 1.180306,1.9518304 1.694656,2.4034704 0.802481,0.70459 1.017852,0.77893 1.518179,0.52282 0.82841,-0.42386 1.434306,-1.20412 2.286,-2.9437604 0.742685,-1.51685 0.742685,-1.51685 0.915194,-0.52916 0.09472,0.54319 0.24765,2.8725804 0.339989,5.1760404 0.159015,3.97404 0.198438,4.20846 0.769673,4.58285 0.7747,0.50747 1.616604,0.10372 1.867429,-0.89535 0.09763,-0.38947 0.03466,-2.55879 -0.139964,-4.82097 -0.548746,-7.1032704 -1.085057,-9.0080104 -2.535502,-9.0080104 -0.945092,0 -1.477698,0.59558 -2.621757,2.93079 -0.600604,1.22582 -1.210998,2.22065 -1.356518,2.21112 -0.145521,-0.01 -0.747977,-1.00674 -1.338527,-2.21588 -1.468702,-3.00514 -2.389452,-3.58775 -3.660775,-2.31643 m 18.936228,0.0537 c -1.39012,1.16973 -3.831695,6.3635004 -4.663545,9.9200204 -0.605367,2.58975 -0.543719,3.60442 0.251618,4.12539 0.603515,0.39529 0.717021,0.39687 1.296459,0.0172 0.486039,-0.3183 0.676539,-0.74481 0.811477,-1.81637 0.0971,-0.76994 0.350308,-2.02538 0.563033,-2.78924 0.386556,-1.38906 0.386556,-1.38906 1.522413,-1.38906 1.530085,0 3.828256,1.18401 4.62227,2.38125 0.337609,0.50932 0.753798,1.44833 0.924719,2.08677 0.178329,0.66622 0.564886,1.32715 0.907521,1.55178 0.533135,0.34925 0.670983,0.34237 1.29249,-0.0646 0.640027,-0.41963 0.684212,-0.56435 0.552185,-1.81636 -0.341313,-3.24379 -3.23215,-10.1623804 -5.018352,-12.0102304 -1.017588,-1.05278 -1.972204,-1.11416 -3.062288,-0.19659 m 12.950825,-0.3982 c -1.755775,0.41461 -2.935287,1.74334 -2.935287,3.30677 0,1.8034 1.413139,3.0895404 3.911335,3.5597004 3.972984,0.74771 4.812242,1.24936 4.812242,2.87576 0,1.80816 -1.395413,2.39606 -5.735902,2.41644 -1.843352,0.009 -2.528623,0.11192 -2.844271,0.4273 -0.487362,0.48763 -0.513821,0.75856 -0.141817,1.45388 0.250561,0.46832 0.582613,0.51118 3.902605,0.50589 2.946929,-0.005 3.829579,-0.0971 4.697941,-0.4916 3.397515,-1.54305 4.002088,-6.1722 1.069181,-8.1819704 -0.4699,-0.32174 -2.155295,-0.91176 -3.745441,-1.31075 -2.713831,-0.68104 -2.890838,-0.76597 -2.890838,-1.38694 0,-0.66146 0,-0.66146 3.383757,-0.79375 3.505464,-0.13706 3.878262,-0.26882 3.888316,-1.37399 0.0085,-0.93794 -1.02235,-1.27344 -3.825346,-1.24486 -1.459177,0.0151 -3.055143,0.12224 -3.546475,0.23812 m 10.815373,0.0762 c -0.79666,0.40164 -0.981604,1.28535 -0.392112,1.87458 0.300037,0.30003 0.903552,0.42995 1.998398,0.42995 1.568714,0 1.568714,0 1.568714,5.8147404 0,5.81475 0,5.81475 0.661458,6.24814 0.612775,0.40137 0.710142,0.40137 1.322917,0 0.661458,-0.43339 0.661458,-0.43339 0.661458,-6.24814 0,-5.8147404 0,-5.8147404 1.568715,-5.8147404 1.669521,0 2.400035,-0.40376 2.400035,-1.32689 0,-1.0832 -0.924189,-1.31921 -5.152231,-1.31498 -2.664619,0.003 -4.194175,0.11377 -4.637352,0.33734 m 12.7,-0.14843 c -0.218281,0.0831 -0.484452,0.28205 -0.591344,0.44212 -0.106891,0.16007 -0.196056,3.22924 -0.198437,6.8207004 -0.0034,5.58667 0.05609,6.58944 0.411691,6.94531 0.341578,0.34157 1.135063,0.41566 4.445,0.41566 4.125384,0 4.66434,-0.12356 4.66434,-1.07024 0,-1.03452 -0.827617,-1.31101 -3.923506,-1.31101 h -2.955661 v -2.77813 -2.77812 h 2.795588 c 1.537494,0 3.025775,-0.1233 3.307291,-0.27385 0.5842,-0.3127304 0.681567,-1.3723904 0.165365,-1.8010104 -0.190765,-0.15796 -1.649148,-0.32147 -3.241146,-0.36301 -2.894806,-0.0757 -2.894806,-0.0757 -2.977621,-0.93557 -0.08308,-0.85989 -0.08308,-0.85989 2.645834,-0.86386 2.87311,-0.004 3.977481,-0.3101 4.138612,-1.14697 0.05027,-0.26168 -0.115887,-0.70512 -0.369358,-0.98531 -0.415661,-0.45932 -0.829734,-0.50747 -4.190471,-0.48869 -2.05105,0.0114 -3.907896,0.0889 -4.126177,0.17198 m 12.244917,0.077 c -0.323057,0.12991 -0.656696,0.51276 -0.741628,0.85063 -0.08493,0.33814 -0.118004,3.44858 -0.07408,6.9125104 0.07488,5.88539 0.114036,6.32248 0.595577,6.67438 0.510117,0.37279 1.350963,0.28363 1.865842,-0.19765 0.145521,-0.13599 0.303477,-1.90844 0.350837,-3.93885 0.04736,-2.03041 0.166423,-3.68882 0.264584,-3.68538 0.09816,0.004 0.711729,0.12938 1.363662,0.27966 2.431521,0.56039 3.868208,2.41512 4.248944,5.48614 0.237331,1.91241 0.443706,2.23149 1.444889,2.23149 1.018646,0 1.24804,-0.37121 1.228725,-1.98755 -0.02011,-1.68619 -0.798248,-3.93753 -1.874043,-5.42263 -0.760413,-1.0498704 -0.760413,-1.0498704 0.05133,-1.8618704 0.652991,-0.653 0.834496,-1.08744 0.927364,-2.21906 0.218811,-2.66727 -1.176866,-3.40704 -6.36561,-3.37503 -1.484577,0.009 -2.963333,0.1233 -3.286389,0.25321 m 13.30616,0.14578 c -0.355865,0.35613 -0.415661,1.37742 -0.415661,7.1114704 0,5.90392 0.05159,6.73841 0.437357,7.05882 0.32332,0.26829 1.37451,0.36301 4.034895,0.36301 3.121819,0 3.716338,-0.0701 4.4958,-0.52917 1.350698,-0.7956 1.950773,-1.77006 2.084917,-3.38534 0.128852,-1.55469 -0.287073,-2.68605 -1.441715,-3.92165 -0.64717,-0.6926804 -0.64717,-0.6926804 0.03016,-1.6906904 0.509323,-0.75036 0.677333,-1.33535 0.677333,-2.35744 0,-2.59821 -0.926571,-3.06096 -6.132777,-3.06308 -2.698221,-0.001 -3.435879,0.0796 -3.770312,0.41407 m 14.035352,0.17965 c -0.42545,0.67046 -0.959644,5.60944 -0.953029,8.8114204 0.0058,2.79083 0.608012,3.92642 2.622811,4.94692 2.4392,1.23534 5.21891,0.82523 6.94717,-1.025 1.39435,-1.49278 1.54993,-3.06784 0.90487,-9.1596104 -0.37253,-3.51975 -0.62415,-4.16904 -1.61554,-4.16904 -1.08109,0 -1.27847,0.58526 -1.09511,3.24591 0.53816,7.8094404 0.54186,7.4109804 -0.077,8.1883204 -1.10147,1.38378 -3.05885,1.44701 -4.4503,0.14367 -0.50694,-0.47492 -0.59531,-0.83105 -0.59531,-2.4003 0,-1.01335 0.14049,-3.1900804 0.31221,-4.8373704 0.2368,-2.27277 0.23812,-3.15701 0.006,-3.66739 -0.39582,-0.86889 -1.477698,-0.91043 -2.006335,-0.0775 m 13.514915,-0.12409 c -0.39714,0.43868 -0.44926,1.25492 -0.44926,7.0241604 0,6.17485 0.0286,6.55611 0.52916,7.0567 0.62601,0.62601 1.03902,0.66279 1.73541,0.15399 0.48048,-0.3511 0.51805,-0.78951 0.58287,-6.81302 0.0754,-7.0045804 -0.037,-7.6932904 -1.27979,-7.8393404 -0.39899,-0.0471 -0.85063,0.12171 -1.11839,0.41751 m 6.35,0 c -0.39635,0.43815 -0.44926,1.2454 -0.44926,6.8625004 0,7.91237 -0.17198,7.53692 3.52822,7.69885 1.39647,0.0611 2.96518,0.0309 3.48615,-0.0667 1.14221,-0.21431 1.67693,-1.08717 1.20571,-1.96797 -0.27464,-0.51276 -0.52229,-0.5625 -2.80538,-0.5625 h -2.50429 l -0.004,-5.49011 c -0.003,-3.8779904 -0.1016,-5.6843004 -0.33681,-6.1515604 -0.42042,-0.83502 -1.5068,-1.00039 -2.12037,-0.32253 m 10.20022,-0.0778 c -0.59028,0.42677 -0.59531,0.48604 -0.59531,7.1297204 0,5.82454 0.0553,6.74556 0.42413,7.05168 0.57229,0.47493 4.83261,0.64108 6.84556,0.26696 7.07311,-1.31445 6.1476,-11.9784804 -1.22952,-14.1692304 -2.17117,-0.64479 -4.75588,-0.77734 -5.44486,-0.27913 m 14.65924,0.0905 c -0.38179,0.42202 -0.43788,1.29752 -0.43788,6.8498004 0,8.13964 -0.32861,7.5819 4.54051,7.70308 4.11956,0.1024 4.98449,-0.10901 4.98449,-1.21893 0,-1.23984 -0.37386,-1.38245 -3.62479,-1.38245 h -2.9898 v -2.77813 -2.77812 h 2.90434 c 2.78474,0 2.92179,-0.0265 3.32607,-0.6437304 0.32809,-0.50059 0.35666,-0.76518 0.12912,-1.19063 -0.26988,-0.50403 -0.53076,-0.54689 -3.32608,-0.54689 -3.03345,0 -3.03345,0 -3.03345,-0.92604 0,-0.92604 0,-0.92604 2.79559,-0.92604 3.20543,0 3.819,-0.21247 3.819,-1.32292 0,-0.49557 -0.18468,-0.87392 -0.51171,-1.04907 -0.28495,-0.1524 -2.20239,-0.27385 -4.32461,-0.27385 -3.35783,0 -3.8653,0.0577 -4.2508,0.48392 m 12.41319,-0.0683 c -0.35612,0.35613 -0.41566,1.37848 -0.41566,7.1249704 0,5.74648 0.0595,6.76883 0.41566,7.12496 0.55245,0.55219 1.25492,0.52573 1.79229,-0.0683 0.36275,-0.40058 0.43789,-1.10728 0.43789,-4.11295 0,-3.62929 0,-3.62929 0.99218,-3.4581 2.67362,0.46117 4.32356,2.1963 4.8096,5.05883 0.4318,2.54265 0.48339,2.658 1.27979,2.85776 2.19578,0.55113 2.15053,-3.70549 -0.0749,-7.01251 -0.92233,-1.37054 -0.92233,-1.37054 -0.26723,-2.1489504 0.77603,-0.92234 1.27794,-2.59265 1.05093,-3.49752 -0.42122,-1.67799 -2.14207,-2.26748 -6.64713,-2.27754 -2.34209,-0.005 -3.04403,0.0802 -3.37344,0.40931 m -68.942745,2.96439 c 0,0.99854 0,0.99854 2.030941,1.3216 1.805517,0.28734 2.084388,0.2749 2.513542,-0.11351 0.631825,-0.57176 0.616479,-1.5875 -0.0291,-1.93304 -0.281517,-0.15055 -1.412611,-0.27385 -2.513542,-0.27385 -2.001837,0 -2.001837,0 -2.001837,0.9988 m -63.692087,0.66861 c -0.448998,0.75644 -0.895086,1.64306 -0.991394,1.97061 -0.160337,0.5455704 -0.0889,0.5953104 0.856192,0.5953104 0.567266,0 1.590675,0.28311 2.274358,0.62945 1.236663,0.626 1.242219,0.62627 1.078177,0.0661 -0.230452,-0.78607 -1.995752,-4.3865204 -2.218266,-4.5238404 -0.100542,-0.0622 -0.550069,0.50588 -0.999067,1.26233 m 50.198337,-0.48181 c 0,1.06098 0.261408,1.18322 2.721504,1.27238 1.402556,0.0508 1.567656,-0.004 1.967442,-0.65193 0.733425,-1.18904 0.168275,-1.54146 -2.472267,-1.54146 -2.216679,0 -2.216679,0 -2.216679,0.92101 m 57.414581,3.9825104 v 4.96252 l 1.91823,-0.15266 c 3.51976,-0.2802 4.4376,-1.016 4.42595,-3.54859 -0.0132,-2.9067204 -2.28256,-5.4618004 -5.36442,-6.0399104 -0.97976,-0.18389 -0.97976,-0.18389 -0.97976,4.7786404 m 27.25209,-4.0161104 c 0,1.01044 0.0939,1.05886 2.65033,1.36472 1.2573,0.15055 1.52638,0.10107 1.93939,-0.35534 0.26406,-0.29157 0.44054,-0.80803 0.39238,-1.14749 -0.0833,-0.58897 -0.19817,-0.62045 -2.53471,-0.69321 -2.44739,-0.0759 -2.44739,-0.0759 -2.44739,0.83132 M 86.718619,13.074405 c 0,2.92232 0,2.92232 2.05052,2.91835 2.690548,-0.005 3.349096,-0.3392 3.453077,-1.75181 0.06244,-0.84904 -0.0672,-1.2565 -0.601662,-1.8915 -0.766233,-0.9107 -2.426229,-1.77112 -3.909748,-2.02671 -0.992187,-0.17092 -0.992187,-0.17092 -0.992187,2.75167"
       style="fill:#e95353;fill-rule:evenodd;stroke:none;stroke-width:0.264583"
       id="path409" />
  </g>
</svg>
