<?xml version="1.0" encoding="UTF-8" standalone="no"?>
<!-- Created with Inkscape (http://www.inkscape.org/) -->

<svg
   width="66mm"
   height="38mm"
   viewBox="0 0 66 38"
   version="1.1"
   id="svg302"
   inkscape:version="1.2.2 (732a01da63, 2022-12-09)"
   sodipodi:docname="drawing.svg"
   xmlns:inkscape="http://www.inkscape.org/namespaces/inkscape"
   xmlns:sodipodi="http://sodipodi.sourceforge.net/DTD/sodipodi-0.dtd"
   xmlns="http://www.w3.org/2000/svg"
   xmlns:svg="http://www.w3.org/2000/svg">
  <sodipodi:namedview
     id="namedview304"
     pagecolor="transparent"
     bordercolor="#ffffff"
     borderopacity="0.01176471"
     inkscape:showpageshadow="2"
     inkscape:pageopacity="0"
     inkscape:pagecheckerboard="0"
     inkscape:deskcolor="#bababa"
     inkscape:document-units="mm"
     showgrid="true"
     inkscape:zoom="1.0129245"
     inkscape:cx="370.21515"
     inkscape:cy="193.49912"
     inkscape:window-width="1450"
     inkscape:window-height="1020"
     inkscape:window-x="2781"
     inkscape:window-y="77"
     inkscape:window-maximized="0"
     inkscape:current-layer="layer1" />
  <defs
     id="defs299" />
  <g
     inkscape:label="Layer 1"
     inkscape:groupmode="layer"
     id="layer1">
    <path
       d="m 15.829769,1.3091766 c -5.376333,1.172633 -10.1803734,4.890558 -12.5404564,9.7054494 -1.496219,3.05276 -1.962415,5.07391 -1.943894,8.42698 0.04471,7.979303 4.9358021,14.606053 12.8465794,17.405083 1.66661,0.58976 2.344738,0.67495 5.474229,0.68765 3.248554,0.013 3.763433,-0.0524 5.688542,-0.72416 1.164166,-0.4064 2.764102,-1.10861 3.555206,-1.56078 1.976437,-1.12951 5.077355,-4.13993 6.366665,-6.18146 2.19366,-3.47371 3.2684,-8.376183 2.67468,-12.202583 -0.30057,-1.93649 -0.9697,-4.2553 -1.34224,-4.65111 -0.47175,-0.50112 -2.13836,3.23215 -3.46233,7.75652 -0.447413,1.52797 -1.240898,3.6494 -1.763185,4.71435 -2.695575,5.493013 -9.056159,8.534133 -14.748934,7.051413 C 8.6259587,29.650549 4.5743936,21.035976 8.1584397,13.715226 10.763263,8.3949826 17.072781,5.4168326 22.657871,6.8717766 c 1.968764,0.512762 3.917421,1.5113 5.185833,2.65721 0.558271,0.5042964 1.086115,0.9167814 1.172898,0.9167814 0.08705,0 0.574675,-0.6252104 1.083469,-1.3890624 0.508794,-0.763852 1.24116,-1.77509 1.627716,-2.246577 0.702734,-0.857779 0.702734,-0.857779 0.07514,-1.388004 -4.388114,-3.70893 -10.550789,-5.29563599 -15.97316,-4.112948 M 42.2881,1.2938266 c -3.79651,0.879739 -6.89663,2.678906 -9.59485,5.568156 -3.772694,4.0396584 -5.572125,9.4387534 -4.854575,14.5669034 0.33655,2.40665 1.072885,4.848233 1.484842,4.924693 0.483129,0.0892 2.154766,-3.662103 3.162035,-7.096393 1.412608,-4.81727 2.447928,-6.80588 4.650578,-8.932336 3.38349,-3.2662824 7.81924,-4.5368114 12.02002,-3.4427594 5.01201,1.305454 8.8228,5.4300454 9.67291,10.4690354 0.86518,5.13027 -1.88251,10.664833 -6.51881,13.130213 -4.87336,2.59133 -10.32774,2.03148 -14.43143,-1.48113 -1.05834,-0.90594 -1.1057,-0.91969 -1.45336,-0.41884 -0.19764,0.28469 -0.95144,1.31392 -1.67508,2.28732 -1.31577,1.76954 -1.31577,1.76954 -0.0963,2.81173 1.48696,1.27132 4.41643,2.75061 6.71751,3.39222 1.2446,0.34714 2.61065,0.47387 5.01756,0.46567 2.86306,-0.01 3.59172,-0.10663 5.42396,-0.7194 4.8858,-1.6338 8.58176,-4.89347 10.85347,-9.5721 2.61753,-5.390353 2.59213,-10.812463 -0.0754,-16.139583 C 60.31232,6.5566536 56.59334,3.3525496 51.81311,1.8214056 49.17283,0.97579761 44.72466,0.72947061 42.28811,1.2938266"
       style="fill:#e95353;fill-rule:evenodd;stroke:none;stroke-width:0.264583"
       id="path297" />
  </g>
</svg>
